<?xml version="1.0" encoding="UTF-8"?>
<svg id="Ebene_1" data-name="Ebene 1" xmlns="http://www.w3.org/2000/svg" viewBox="0 0 169.74 34.82">
  <defs>
    <style>
      .cls-1 {
        fill: #0050c8;
      }
    </style>
  </defs>
  <path class="cls-1" d="m164.07,17.71c0-2.85-.86-4.95-4.06-4.95s-5.07,2.24-5.9,3.45c-.26.37-.29.55-.29.99v16.49c0,.29-.23.52-.52.52h-4.62c-.29,0-.52-.23-.52-.52V1.13c0-.29.23-.52.52-.52h4.62c.29,0,.52.23.52.52v3.23s0,5.73,0,5.82c0,.07.05.13.13.13.09,0,.19-.1.31-.18,2.32-1.51,4.28-2.18,7.2-2.18,5.82,0,8.27,3.97,8.27,8.52v17.21c0,.29-.23.52-.52.52h-4.62c-.29,0-.52-.23-.52-.52v-15.98h0Z"/>
  <path class="cls-1" d="m137.36,34.82c-7.64,0-12.66-5.53-12.66-13.39s5.98-13.45,12.91-13.45c3.48,0,5.78,1.23,7.12,2.05.49.3.53.59.36.91-.25.47-1.72,2.7-1.82,2.89-.1.19-.35.6-.98.26-1.22-.66-2.52-1.37-4.72-1.37-4.51,0-7.26,3.93-7.26,9.02s2.79,8.31,7.4,8.31c2.21,0,3.69-.65,4.88-1.35.69-.41.88.08.98.26.1.19,1.27,2.39,1.52,2.86.17.32.19.6-.3.9-1.34.82-3.45,2.09-7.42,2.09h0Z"/>
  <path class="cls-1" d="m85.62,27.42c.01,4.49-3.84,7.4-10,7.4-4.47,0-6.99-1.27-8.33-2.09-.49-.3-.47-.59-.3-.9.25-.47,1.41-2.67,1.52-2.86.1-.19.29-.66.98-.26.73.42,2.33,1.35,6.12,1.35,2.85-.02,4.32-1.09,4.32-2.61,0-1.68-1.15-2.58-6.05-4.3-3.98-1.39-6.81-2.93-6.81-7s3.35-7.54,8.67-7.54c1.25,0,5.27,0,5.27,0,.29,0,.52.24.52.52v3.71c0,.29-.23.52-.52.52h-4.92c-2.35,0-3.28.92-3.28,2.22,0,2.06,2.22,2.47,5.16,3.63,4.25,1.69,7.66,3.5,7.66,8.21h0Z"/>
  <path class="cls-1" d="m89.71,1.13c0-.29.23-.52.52-.52h4.62c.29,0,.52.23.52.52v7.21c0,.15.11.26.26.26h4.63c.29,0,.52.24.52.52v3.71c0,.29-.23.52-.52.52h-4.63c-.15,0-.26.11-.26.26v12.87c0,2.48.59,3.56,2.59,3.56,1.29,0,2.17-.53,2.65-.73.6-.25.73.12.91.43.11.19,1.2,2.24,1.44,2.71.18.36.18.72-.33.99-1.23.68-2.58,1.26-5.25,1.36-.07,0-.15.01-.23.01h-.23s-.26,0-.26,0c-.02,0-.04,0-.06-.01-4.99-.19-6.92-2.98-6.92-7.42v-13.77c0-.15-.11-.26-.26-.26h-4.14c-.29,0-.52-.23-.52-.52v-3.71c0-.29.23-.52.52-.52h4.14c.15,0,.26-.11.26-.26V1.13h0Z"/>
  <path class="cls-1" d="m28.51,22.45v8.02c0,1.02-.23,1.22-.91,1.67-.6.4-4.7,2.69-11.06,2.69C5.93,34.82,0,26.28,0,17.34S5.73,0,16.92,0c4.63,0,7.86,1.13,10.61,2.79.47.28.32.65.21.83-.23.38-1.69,2.85-1.95,3.27-.09.15-.39.35-.77.11-2.15-1.32-5.21-2.25-8.39-2.25-7.54,0-10.91,5.85-10.91,12.38s3.42,12.93,10.86,12.93c3.12,0,4.63-.51,5.56-.98.45-.23.65-.38.65-.95,0-.53,0-4.83,0-4.96,0-.15-.11-.26-.26-.26h-5.94c-.29,0-.52-.23-.52-.52v-3.74c0-.29.23-.52.52-.52h11.39c.29,0,.52.23.52.52v3.8h0Z"/>
  <path class="cls-1" d="m37.4,17.47c-.14.62,0,.69.16.69h11.4c.17,0,.27-.07.27-.27,0-.22-.03-.51-.04-.61-.32-2.84-2.12-4.75-5.51-4.75-5.08,0-6.09,4.11-6.28,4.94h0Zm-.04,5.9c0,.13.03.57.06.77.52,3.95,3.39,5.91,7.32,5.91,3.72-.02,5.78-1.06,6.4-1.35.72-.35.88.08.98.26.1.19,1.27,2.39,1.52,2.86.17.32.19.6-.3.9-1.34.82-3.89,2.09-8.89,2.09h-.08c-8.27,0-12.65-5.69-12.65-13.57s5.12-13.27,12.35-13.27c3.55,0,7.27,1.5,9.16,5.72,1.84,4.09,1.05,8.76,1.05,8.76-.05.29-.27.5-.55.5h-16.09c-.16,0-.3.08-.28.42h0Z"/>
  <path class="cls-1" d="m105.75,1.13c0-.29.23-.52.52-.52h4.62c.29,0,.52.23.52.52v32.56c0,.29-.23.52-.52.52h-4.62c-.29,0-.52-.23-.52-.52V1.13h0Z"/>
  <path class="cls-1" d="m58.08,9.13c0-.29.23-.52.52-.52h4.62c.29,0,.52.24.52.52v24.56c0,.29-.23.52-.52.52h-4.62c-.29,0-.52-.23-.52-.52V9.13h0Z"/>
  <path class="cls-1" d="m58.08,1.13c0-.29.23-.52.52-.52h4.62c.29,0,.52.23.52.52v3.71c0,.29-.23.52-.52.52h-4.62c-.29,0-.52-.23-.52-.52V1.13h0Z"/>
  <path class="cls-1" d="m116.11,9.13c0-.29.23-.52.52-.52h4.62c.29,0,.52.23.52.52v24.56c0,.29-.23.52-.52.52h-4.62c-.29,0-.52-.23-.52-.52V9.13h0Z"/>
  <path class="cls-1" d="m116.11,1.13c0-.29.23-.52.52-.52h4.62c.29,0,.52.24.52.52v3.71c0,.29-.23.52-.52.52h-4.62c-.29,0-.52-.23-.52-.52V1.13h0Z"/>
</svg>